<?xml version="1.0" encoding="utf-8"?>
<!-- Generator: Adobe Illustrator 18.1.1, SVG Export Plug-In . SVG Version: 6.00 Build 0)  -->
<svg version="1.1" id="Layer_1" xmlns="http://www.w3.org/2000/svg" xmlns:xlink="http://www.w3.org/1999/xlink" x="0px" y="0px"
	 viewBox="0 0 35 35" enable-background="new 0 0 35 35" xml:space="preserve">
<path fill="#FFFFFF" d="M35,17.5C35,27.2,27.2,35,17.5,35S0,27.2,0,17.5S7.8,0,17.5,0S35,7.8,35,17.5z M28.4,24.2V10.7l-7.1,6.2
	L28.4,24.2z M6.6,10.7v13.5l7.1-7.3L6.6,10.7z M27.8,10.3H7.2l10.3,8.9L27.8,10.3z M17.7,19.9C17.7,20,17.7,20,17.7,19.9
	c-0.1,0-0.1,0.1-0.1,0.1c0,0-0.1,0-0.1,0s-0.1,0-0.1,0c0,0,0,0,0,0c0,0,0,0-0.1,0l-3-2.6l-7.1,7.4h20.7l-7.1-7.4L17.7,19.9z"/>
</svg>
