<?xml version="1.0" encoding="utf-8"?>
<!-- Generator: Adobe Illustrator 18.1.1, SVG Export Plug-In . SVG Version: 6.00 Build 0)  -->
<svg version="1.1" id="Layer_1" xmlns="http://www.w3.org/2000/svg" xmlns:xlink="http://www.w3.org/1999/xlink" x="0px" y="0px"
	 viewBox="0 0 35 35" enable-background="new 0 0 35 35" xml:space="preserve">
<g>
	<path fill-rule="evenodd" clip-rule="evenodd" fill="#FFFFFF" d="M17.5,0C7.8,0,0,7.8,0,17.5c0,7.7,5,14.3,12,16.6
		c0.9,0.2,1.2-0.4,1.2-0.8c0-0.4,0-1.5,0-3c-4.9,1.1-5.9-2.3-5.9-2.3c-0.8-2-1.9-2.6-1.9-2.6c-1.6-1.1,0.1-1.1,0.1-1.1
		c1.8,0.1,2.7,1.8,2.7,1.8c1.6,2.7,4.1,1.9,5.1,1.5c0.2-1.1,0.6-1.9,1.1-2.3c-3.9-0.4-8-1.9-8-8.6c0-1.9,0.7-3.5,1.8-4.7
		C8,11.4,7.4,9.7,8.3,7.3c0,0,1.5-0.5,4.8,1.8c1.4-0.4,2.9-0.6,4.4-0.6c1.5,0,3,0.2,4.4,0.6c3.3-2.3,4.8-1.8,4.8-1.8
		c1,2.4,0.4,4.2,0.2,4.6c1.1,1.2,1.8,2.8,1.8,4.7c0,6.7-4.1,8.2-8,8.6c0.6,0.5,1.2,1.6,1.2,3.2c0,2.3,0,4.2,0,4.8
		c0,0.5,0.3,1,1.2,0.8c6.9-2.3,12-8.9,12-16.6C35,7.8,27.2,0,17.5,0z"/>
</g>
</svg>
