<?xml version="1.0" encoding="utf-8"?>
<!-- Generator: Adobe Illustrator 18.1.1, SVG Export Plug-In . SVG Version: 6.00 Build 0)  -->
<svg version="1.1" id="Layer_1" xmlns="http://www.w3.org/2000/svg" xmlns:xlink="http://www.w3.org/1999/xlink" x="0px" y="0px"
	 viewBox="0 0 35 35" enable-background="new 0 0 35 35" xml:space="preserve">
<path fill="#FFFFFF" d="M35,17.5C35,27.2,27.2,35,17.5,35S0,27.2,0,17.5S7.8,0,17.5,0S35,7.8,35,17.5z M13.7,25.9
	c7.8,0,12-6.4,12-12c0-0.2,0-0.4,0-0.5c0.8-0.6,1.5-1.3,2.1-2.2c-0.8,0.3-1.6,0.6-2.4,0.7c0.9-0.5,1.5-1.3,1.9-2.3
	c-0.8,0.5-1.7,0.8-2.7,1c-0.8-0.8-1.9-1.3-3.1-1.3c-2.3,0-4.2,1.9-4.2,4.2c0,0.3,0,0.7,0.1,1c-3.5-0.2-6.6-1.9-8.7-4.4
	c-0.4,0.6-0.6,1.3-0.6,2.1c0,1.5,0.7,2.8,1.9,3.5c-0.7,0-1.3-0.2-1.9-0.5c0,0,0,0,0,0.1c0,2,1.5,3.7,3.4,4.1
	c-0.4,0.1-0.7,0.1-1.1,0.1c-0.3,0-0.5,0-0.8-0.1c0.5,1.7,2.1,2.9,3.9,2.9C12,23.3,10.2,24,8.2,24c-0.3,0-0.7,0-1-0.1
	C9.1,25.2,11.3,25.9,13.7,25.9"/>
</svg>
